<svg width="100" height="52" viewBox="0 0 100 52" fill="none" xmlns="http://www.w3.org/2000/svg">
<path d="M80.7285 15.1078C80.7285 18.2662 78.5604 20.3983 75.3852 20.3983C72.172 20.3983 70.0039 18.2662 70.0039 15.1078C70.0039 11.9697 72.172 9.85596 75.3852 9.85596C78.5604 9.85799 80.7285 11.9697 80.7285 15.1078ZM72.4957 15.1465C72.4957 17.0077 73.6747 18.2845 75.3852 18.2845C77.0577 18.2845 78.2367 17.0057 78.2367 15.1465C78.2367 13.2873 77.0577 12.0084 75.3852 12.0084C73.6747 12.0084 72.4957 13.2873 72.4957 15.1465Z" fill="#0367B4"/>
<path d="M93.2378 13.8272V20.2989H90.748V14.5644C90.748 13.1104 89.8928 12.2205 88.486 12.2205C86.8135 12.2389 85.8244 13.4994 85.8244 15.2038V20.2989H83.3525V9.93368H85.8244V11.8703C86.5477 10.4937 87.8206 9.85426 89.4751 9.83594C91.8131 9.83594 93.2378 11.3673 93.2378 13.8272Z" fill="#0367B4"/>
<path d="M99.9999 30.2321H63.2422V0H99.9999V30.2321ZM65.2165 28.2222H98.0276V2.00991H65.2165V28.2222Z" fill="#0367B4"/>
<path d="M37.3408 39.6665C37.3408 40.5707 38.0522 41.1551 39.2152 41.1551C40.6959 41.1551 41.8588 40.3507 41.9967 39.3061V38.3408H39.3331C37.9723 38.3388 37.3408 38.7216 37.3408 39.6665Z" fill="#0367B4"/>
<path d="M11.9092 37.7563H16.7629L14.355 31.8447L11.9092 37.7563Z" fill="#0367B4"/>
<path d="M52.5335 40.972C54.19 40.972 55.5329 39.5051 55.5329 37.6955C55.5329 35.8859 54.19 34.4189 52.5335 34.4189C50.877 34.4189 49.5342 35.8859 49.5342 37.6955C49.5342 39.5051 50.877 40.972 52.5335 40.972Z" fill="#0367B4"/>
<path d="M0 20.2334V51.054H65.0927V20.2334H0ZM18.9333 43.0429L17.7104 40.0677H10.9624L9.73943 43.0429H6.99585L13.0525 28.9674H15.7961L21.7748 43.0429H18.9333ZM30.9887 43.0429L28.1273 38.3389L26.5087 40.0677V43.0429H23.9429V28.1223H26.5087V36.7688L30.8489 32.3051H33.8083L29.9017 36.4471L34.0461 43.0429H30.9887ZM42.017 43.0429V41.7355C41.2877 42.6804 40.1027 43.163 38.604 43.163C36.334 43.163 34.9153 41.7355 34.9153 39.8254C34.9153 37.8338 36.356 36.6079 38.9198 36.5876H41.9971V36.3066C41.9971 35.0603 41.1878 34.315 39.6092 34.315C38.622 34.315 37.557 34.6571 36.4719 35.3209L35.5447 33.5106C37.0634 32.6451 38.2484 32.1829 40.1807 32.1829C42.9422 32.1829 44.5009 33.6104 44.5208 36.0031L44.5408 43.0409H42.017V43.0429ZM58.0969 43.0429H55.5311V41.314C54.7818 42.5012 53.5589 43.163 51.9803 43.163C48.9609 43.163 46.9487 40.9108 46.9487 37.6343C46.9487 34.3761 48.9609 32.1849 51.9203 32.1849C53.5389 32.1849 54.7618 32.8488 55.5311 34.0543V28.1223H58.0969V43.0429Z" fill="#0367B4"/>
</svg>
