<svg width="261" height="187" viewBox="0 0 261 187" fill="none" xmlns="http://www.w3.org/2000/svg">
<path d="M198.273 47.2681H64.3584C62.5275 47.2675 60.7145 47.6277 59.0228 48.328C57.3311 49.0282 55.794 50.0549 54.4992 51.3494C53.2044 52.6438 52.1773 54.1806 51.4765 55.8721C50.7757 57.5636 50.415 59.3765 50.415 61.2074V129.179C50.415 132.877 51.8841 136.424 54.4989 139.039C57.1138 141.654 60.6604 143.123 64.3584 143.123H135.78C136.233 143.121 136.683 143.209 137.103 143.382L178.989 160.564C179.916 160.948 180.923 161.097 181.921 160.997C182.919 160.898 183.876 160.554 184.709 159.996C185.542 159.437 186.224 158.681 186.694 157.796C187.165 156.91 187.409 155.922 187.406 154.919V146.604C187.407 145.681 187.775 144.795 188.428 144.142C189.082 143.489 189.968 143.123 190.892 143.123H198.265C201.963 143.123 205.51 141.654 208.124 139.039C210.739 136.424 212.208 132.877 212.208 129.179V61.2074C212.208 57.5111 210.74 53.9662 208.127 51.3522C205.514 48.7382 201.969 47.2691 198.273 47.2681Z" fill="#0367B4"/>
<path d="M132.72 127.572C122.599 119.833 113.647 110.581 107.897 99.669C102.147 88.757 99.8377 76.0878 102.962 64.3074C104.682 57.9298 107.949 52.0753 112.474 47.2637H64.3706C62.5397 47.2631 60.7267 47.6233 59.035 48.3236C57.3434 49.0239 55.8062 50.0505 54.5114 51.345C53.2166 52.6394 52.1895 54.1762 51.4887 55.8677C50.7879 57.5592 50.4272 59.3721 50.4272 61.203V129.175C50.4272 132.873 51.8963 136.419 54.5112 139.034C57.126 141.649 60.6726 143.118 64.3706 143.118H135.792C136.246 143.117 136.695 143.205 137.115 143.378L179.002 160.56C179.928 160.943 180.935 161.092 181.933 160.993C182.931 160.894 183.889 160.55 184.721 159.991C185.554 159.433 186.236 158.677 186.707 157.791C187.177 156.906 187.421 155.918 187.418 154.915V152.618C167.436 148.26 148.534 139.661 132.72 127.572Z" fill="#0367B4"/>
<path d="M194.544 98.6261H68.1244C67.5109 98.6261 66.9225 98.3824 66.4888 97.9487C66.055 97.5149 65.8113 96.9265 65.8113 96.3131C65.8113 95.6996 66.055 95.1113 66.4888 94.6775C66.9225 94.2437 67.5109 94 68.1244 94H194.544C195.157 94.0011 195.745 94.2451 196.178 94.6787C196.612 95.1122 196.856 95.6999 196.857 96.3131V96.3131C196.857 96.9265 196.613 97.5149 196.18 97.9487C195.746 98.3824 195.157 98.6261 194.544 98.6261Z" fill="white"/>
<path d="M68.1244 93.9961C67.5109 93.9961 66.9225 94.2398 66.4888 94.6736C66.055 95.1074 65.8113 95.6957 65.8113 96.3092V96.3092C65.8113 96.9226 66.055 97.511 66.4888 97.9448C66.9225 98.3785 67.5109 98.6222 68.1244 98.6222H107.361C106.603 97.1127 105.913 95.5665 105.296 93.9961H68.1244Z" fill="#C5C6D1"/>
<path d="M194.544 113.182H68.1244C67.5109 113.182 66.9225 112.939 66.4888 112.505C66.055 112.071 65.8113 111.483 65.8113 110.869C65.8113 110.256 66.055 109.667 66.4888 109.234C66.9225 108.8 67.5109 108.556 68.1244 108.556H194.544C195.157 108.556 195.746 108.8 196.18 109.234C196.613 109.667 196.857 110.256 196.857 110.869C196.856 111.482 196.612 112.07 196.178 112.504C195.745 112.937 195.157 113.181 194.544 113.182V113.182Z" fill="white"/>
<path d="M68.1244 108.556C67.5109 108.556 66.9225 108.8 66.4888 109.234C66.055 109.667 65.8113 110.256 65.8113 110.869C65.8113 111.483 66.055 112.071 66.4888 112.505C66.9225 112.939 67.5109 113.182 68.1244 113.182H117.226C115.928 111.681 114.694 110.139 113.526 108.556H68.1244Z" fill="#C5C6D1"/>
<path d="M194.544 127.738H68.1244C67.5109 127.738 66.9225 127.495 66.4888 127.061C66.055 126.627 65.8113 126.039 65.8113 125.425C65.8113 124.812 66.055 124.224 66.4888 123.79C66.9225 123.356 67.5109 123.112 68.1244 123.112H194.544C195.157 123.112 195.746 123.356 196.18 123.79C196.613 124.224 196.857 124.812 196.857 125.425C196.857 126.039 196.613 126.627 196.18 127.061C195.746 127.495 195.157 127.738 194.544 127.738Z" fill="white"/>
<path d="M206.703 178.141C228.236 178.141 245.692 160.686 245.692 139.153C245.692 117.62 228.236 100.165 206.703 100.165C185.171 100.165 167.715 117.62 167.715 139.153C167.715 160.686 185.171 178.141 206.703 178.141Z" fill="url(#paint0_linear)"/>
<path opacity="0.73" d="M174.553 123.113C174.529 123.113 174.505 123.107 174.483 123.096C174.446 123.077 174.418 123.044 174.405 123.005C174.392 122.966 174.395 122.923 174.414 122.886C177.937 115.914 183.619 110.269 190.614 106.792C197.608 103.315 205.54 102.192 213.224 103.592C213.265 103.6 213.301 103.623 213.325 103.657C213.348 103.692 213.357 103.734 213.35 103.774C213.342 103.815 213.319 103.851 213.285 103.875C213.25 103.899 213.208 103.908 213.167 103.9C211.035 103.513 208.871 103.318 206.703 103.319C200.066 103.316 193.559 105.158 187.907 108.637C182.255 112.117 177.68 117.097 174.693 123.024C174.681 123.051 174.661 123.073 174.636 123.089C174.611 123.104 174.583 123.113 174.553 123.113V123.113Z" fill="white"/>
<path opacity="0.73" d="M230.887 163.336C243.774 150.449 243.774 129.555 230.887 116.668C218 103.782 197.106 103.782 184.22 116.668C171.333 129.555 171.333 150.449 184.22 163.336C197.106 176.222 218 176.222 230.887 163.336Z" fill="white"/>
<path d="M217.656 127.533C217.656 133.121 213.126 139.153 207.538 139.153C201.95 139.153 197.425 133.12 197.425 127.533C197.425 121.946 201.955 117.982 207.542 117.982C213.129 117.982 217.656 121.945 217.656 127.533Z" fill="url(#paint1_linear)"/>
<path d="M194.983 160.666H219.684C220.951 160.666 222.185 160.263 223.208 159.516C224.231 158.769 224.991 157.716 225.377 156.509L226.706 152.355C227.678 149.314 226.097 146.021 223.098 144.925C213.047 141.25 202.654 141.721 192.007 145.263C189.024 146.256 187.37 149.446 188.193 152.48L189.216 156.252C189.559 157.519 190.31 158.637 191.352 159.435C192.395 160.232 193.671 160.665 194.983 160.666Z" fill="url(#paint2_linear)"/>
<path d="M65.8113 125.409C65.8113 125.713 65.8711 126.013 65.9874 126.294C66.1036 126.575 66.274 126.83 66.4888 127.045C66.7036 127.259 66.9585 127.43 67.2392 127.546C67.5198 127.662 67.8206 127.722 68.1244 127.722H132.939L132.72 127.556C130.842 126.119 129.011 124.631 127.225 123.092H68.1244C67.8203 123.092 67.5192 123.152 67.2383 123.268C66.9574 123.385 66.7022 123.555 66.4873 123.771C66.2725 123.986 66.1022 124.241 65.9862 124.523C65.8702 124.804 65.8107 125.105 65.8113 125.409V125.409Z" fill="#C5C6D1"/>
<path d="M74.8321 78.206L70.3683 80.5516C70.2234 80.6285 70.0598 80.6631 69.8961 80.6516C69.7324 80.6401 69.5753 80.5829 69.4425 80.4865C69.3098 80.3901 69.2067 80.2584 69.1451 80.1063C69.0835 79.9543 69.0658 79.788 69.0941 79.6263L69.9463 74.6553C69.9702 74.5153 69.9598 74.3717 69.916 74.2367C69.8722 74.1017 69.7962 73.9793 69.6947 73.8802L66.083 70.3619C65.9667 70.2471 65.8847 70.1022 65.846 69.9434C65.8074 69.7846 65.8137 69.6182 65.8642 69.4628C65.9148 69.3074 66.0075 69.1692 66.1322 69.0635C66.2568 68.9578 66.4084 68.8889 66.57 68.8645L71.5614 68.1381C71.7018 68.1183 71.8353 68.0643 71.9499 67.9808C72.0645 67.8973 72.1569 67.7869 72.2188 67.6592L74.4507 63.1386C74.5228 62.9913 74.6348 62.8671 74.774 62.7803C74.9132 62.6935 75.0739 62.6475 75.2379 62.6475C75.402 62.6475 75.5627 62.6935 75.7019 62.7803C75.841 62.8671 75.9531 62.9913 76.0252 63.1386L78.2571 67.6592C78.3193 67.7874 78.4123 67.8981 78.5277 67.9817C78.6431 68.0652 78.7774 68.119 78.9186 68.1381L83.9059 68.8645C84.0683 68.8875 84.221 68.9556 84.3466 69.0611C84.4723 69.1666 84.5657 69.3052 84.6165 69.4613C84.6672 69.6173 84.6731 69.7844 84.6336 69.9436C84.5941 70.1028 84.5106 70.2477 84.3928 70.3619L80.7812 73.8802C80.6796 73.9793 80.6037 74.1017 80.5598 74.2367C80.516 74.3717 80.5056 74.5153 80.5296 74.6553L81.3818 79.6263C81.4095 79.7874 81.3916 79.953 81.3301 80.1045C81.2687 80.2559 81.1661 80.3872 81.034 80.4834C80.9019 80.5796 80.7455 80.637 80.5825 80.649C80.4195 80.6611 80.2564 80.6273 80.1116 80.5516L75.6478 78.206C75.522 78.1399 75.3821 78.1054 75.24 78.1054C75.0979 78.1054 74.9579 78.1399 74.8321 78.206V78.206Z" fill="#FFC040"/>
<path d="M75.6438 78.2062L80.1076 80.5518C80.2524 80.6275 80.4156 80.6613 80.5785 80.6492C80.7415 80.6372 80.8979 80.5798 81.03 80.4836C81.1621 80.3874 81.2647 80.2561 81.3261 80.1047C81.3876 79.9532 81.4055 79.7876 81.3778 79.6265L81.3494 79.4561C80.0353 78.9972 78.7963 78.3462 77.6728 77.5245C75.238 75.6984 73.6148 72.8456 73.838 69.9522C73.9435 68.9414 74.2724 67.9666 74.8009 67.0985C75.3294 66.2303 76.0442 65.4905 76.8937 64.9325L76.0171 63.1591C75.945 63.0118 75.833 62.8876 75.6938 62.8008C75.5547 62.714 75.3939 62.668 75.2299 62.668C75.0658 62.668 74.9051 62.714 74.7659 62.8008C74.6268 62.8876 74.5147 63.0118 74.4426 63.1591L72.2107 67.6797C72.1488 67.8074 72.0565 67.9178 71.9419 68.0013C71.8272 68.0848 71.6938 68.1388 71.5533 68.1586L66.5619 68.885C66.4004 68.9094 66.2488 68.9783 66.1241 69.084C65.9995 69.1896 65.9067 69.3279 65.8562 69.4833C65.8056 69.6387 65.7993 69.8051 65.838 69.9639C65.8766 70.1227 65.9587 70.2676 66.075 70.3824L69.6866 73.9007C69.7882 73.9998 69.8641 74.1222 69.908 74.2572C69.9518 74.3922 69.9622 74.5359 69.9382 74.6758L69.086 79.6468C69.0578 79.8085 69.0755 79.9748 69.1371 80.1268C69.1987 80.2789 69.3017 80.4106 69.4345 80.507C69.5672 80.6034 69.7244 80.6606 69.888 80.6721C70.0517 80.6836 70.2153 80.649 70.3603 80.5721L74.8241 78.2265C74.9487 78.1566 75.0885 78.1182 75.2314 78.1146C75.3743 78.1111 75.5159 78.1425 75.6438 78.2062V78.2062Z" fill="#F3A402"/>
<path d="M102.869 78.2061L98.4052 80.5516C98.2602 80.6285 98.0966 80.6632 97.933 80.6517C97.7693 80.6402 97.6121 80.583 97.4794 80.4866C97.3466 80.3902 97.2436 80.2585 97.182 80.1064C97.1204 79.9543 97.1027 79.788 97.131 79.6264L97.9831 74.6553C98.0071 74.5154 97.9967 74.3718 97.9529 74.2368C97.9091 74.1018 97.8331 73.9794 97.7315 73.8802L94.1199 70.3619C94.0036 70.2471 93.9215 70.1022 93.8829 69.9435C93.8442 69.7847 93.8505 69.6183 93.9011 69.4629C93.9516 69.3075 94.0444 69.1692 94.169 69.0635C94.2937 68.9579 94.4453 68.889 94.6069 68.8645L99.5982 68.1381C99.7389 68.1177 99.8726 68.0634 99.9878 67.98C100.103 67.8966 100.196 67.7866 100.26 67.6593L102.492 63.1387C102.563 62.9911 102.675 62.8667 102.813 62.7797C102.952 62.6927 103.113 62.6465 103.277 62.6465C103.441 62.6465 103.601 62.6927 103.74 62.7797C103.879 62.8667 103.991 62.9911 104.062 63.1387L106.294 67.6593C106.357 67.787 106.45 67.8974 106.565 67.9809C106.681 68.0644 106.814 68.1183 106.955 68.1381L111.947 68.8645C112.109 68.8882 112.261 68.9567 112.386 69.0625C112.511 69.1683 112.604 69.307 112.655 69.4629C112.705 69.6188 112.71 69.7856 112.671 69.9445C112.631 70.1035 112.547 70.2481 112.43 70.3619L108.822 73.8721C108.72 73.9709 108.643 74.0931 108.599 74.2281C108.554 74.3631 108.543 74.507 108.566 74.6472L109.419 79.6183C109.446 79.7794 109.428 79.945 109.367 80.0964C109.306 80.2479 109.203 80.3791 109.071 80.4753C108.939 80.5716 108.782 80.6289 108.619 80.641C108.456 80.653 108.293 80.6193 108.148 80.5435L103.685 78.198C103.558 78.1331 103.418 78.1 103.276 78.1014C103.134 78.1028 102.994 78.1387 102.869 78.2061V78.2061Z" fill="#FFC040"/>
<path d="M103.685 78.2061L108.149 80.5516C108.294 80.6274 108.457 80.6612 108.62 80.6491C108.783 80.6371 108.939 80.5797 109.071 80.4835C109.203 80.3872 109.306 80.256 109.367 80.1045C109.429 79.9531 109.447 79.7875 109.419 79.6264L109.39 79.456C108.077 78.9904 106.839 78.3326 105.718 77.5041C103.283 75.678 101.66 72.8252 101.883 69.9318C101.989 68.9212 102.319 67.9467 102.847 67.0787C103.376 66.2107 104.09 65.4707 104.939 64.912L104.05 63.1387C103.979 62.9911 103.867 62.8667 103.728 62.7797C103.589 62.6927 103.429 62.6465 103.265 62.6465C103.101 62.6465 102.94 62.6927 102.801 62.7797C102.663 62.8667 102.551 62.9911 102.48 63.1387L100.248 67.6593C100.184 67.7866 100.091 67.8966 99.9759 67.98C99.8607 68.0634 99.727 68.1177 99.5863 68.1381L94.5949 68.8645C94.4333 68.889 94.2817 68.9579 94.1571 69.0635C94.0324 69.1692 93.9397 69.3075 93.8891 69.4629C93.8386 69.6183 93.8323 69.7847 93.8709 69.9435C93.9096 70.1022 93.9916 70.2471 94.1079 70.3619L97.7196 73.8802C97.8211 73.9794 97.8971 74.1018 97.9409 74.2368C97.9847 74.3718 97.9951 74.5154 97.9712 74.6553L97.1514 79.6264C97.1232 79.788 97.1409 79.9543 97.2025 80.1064C97.2641 80.2585 97.3671 80.3902 97.4999 80.4866C97.6326 80.583 97.7898 80.6402 97.9535 80.6517C98.1171 80.6632 98.2807 80.6285 98.4257 80.5516L102.889 78.2061C103.013 78.1434 103.149 78.1107 103.287 78.1107C103.425 78.1107 103.562 78.1434 103.685 78.2061V78.2061Z" fill="#F3A402"/>
<path d="M130.914 78.2061L126.45 80.5516C126.305 80.6269 126.142 80.6603 125.979 80.648C125.816 80.6358 125.66 80.5785 125.527 80.4825C125.395 80.3864 125.292 80.2555 125.23 80.1043C125.168 79.9531 125.149 79.7876 125.176 79.6264L126.032 74.6553C126.056 74.5151 126.045 74.3713 126 74.2362C125.956 74.1012 125.879 73.979 125.777 73.8802L122.169 70.3619C122.051 70.2481 121.968 70.1035 121.928 69.9445C121.888 69.7856 121.894 69.6188 121.944 69.4629C121.994 69.307 122.087 69.1683 122.212 69.0625C122.338 68.9567 122.49 68.8882 122.652 68.8645L127.643 68.1381C127.784 68.1177 127.918 68.0634 128.033 67.98C128.148 67.8966 128.241 67.7866 128.305 67.6593L130.537 63.1387C130.608 62.9911 130.72 62.8667 130.859 62.7797C130.997 62.6927 131.158 62.6465 131.322 62.6465C131.486 62.6465 131.646 62.6927 131.785 62.7797C131.924 62.8667 132.036 62.9911 132.107 63.1387L134.339 67.6593C134.402 67.7866 134.496 67.8966 134.611 67.98C134.726 68.0634 134.86 68.1177 135 68.1381L139.992 68.8645C140.153 68.889 140.305 68.9579 140.43 69.0635C140.554 69.1692 140.647 69.3075 140.698 69.4629C140.748 69.6183 140.754 69.7847 140.716 69.9435C140.677 70.1022 140.595 70.2471 140.479 70.3619L136.867 73.8802C136.766 73.9794 136.69 74.1018 136.646 74.2368C136.602 74.3718 136.592 74.5154 136.616 74.6553L137.468 79.6264C137.496 79.788 137.478 79.9543 137.417 80.1064C137.355 80.2585 137.252 80.3902 137.119 80.4866C136.987 80.583 136.829 80.6402 136.666 80.6517C136.502 80.6632 136.338 80.6285 136.194 80.5516L131.73 78.2061C131.604 78.14 131.464 78.1054 131.322 78.1054C131.18 78.1054 131.04 78.14 130.914 78.2061V78.2061Z" fill="#FFC040"/>
<path d="M131.73 78.2061L136.194 80.5516C136.338 80.6285 136.502 80.6632 136.666 80.6517C136.829 80.6402 136.987 80.583 137.119 80.4866C137.252 80.3902 137.355 80.2585 137.417 80.1064C137.478 79.9543 137.496 79.788 137.468 79.6264L137.435 79.456C136.129 78.9877 134.898 78.33 133.783 77.5041C131.348 75.678 129.725 72.8252 129.952 69.9318C130.057 68.9212 130.385 67.9466 130.913 67.0784C131.441 66.2102 132.155 65.4702 133.004 64.912L132.127 63.1387C132.056 62.9911 131.944 62.8667 131.806 62.7797C131.667 62.6927 131.506 62.6465 131.342 62.6465C131.178 62.6465 131.018 62.6927 130.879 62.7797C130.74 62.8667 130.628 62.9911 130.557 63.1387L128.325 67.6593C128.262 67.7866 128.168 67.8966 128.053 67.98C127.938 68.0634 127.804 68.1177 127.664 68.1381L122.672 68.8645C122.51 68.8882 122.358 68.9567 122.233 69.0625C122.108 69.1683 122.015 69.307 121.964 69.4629C121.914 69.6188 121.909 69.7856 121.948 69.9445C121.988 70.1035 122.072 70.2481 122.189 70.3619L125.797 73.8802C125.899 73.979 125.976 74.1012 126.02 74.2362C126.065 74.3713 126.076 74.5151 126.053 74.6553L125.196 79.6264C125.17 79.7876 125.188 79.9531 125.25 80.1043C125.313 80.2555 125.415 80.3864 125.548 80.4825C125.68 80.5785 125.836 80.6358 125.999 80.648C126.162 80.6603 126.325 80.6269 126.47 80.5516L130.934 78.2061C131.057 78.1434 131.194 78.1107 131.332 78.1107C131.47 78.1107 131.606 78.1434 131.73 78.2061V78.2061Z" fill="#F3A402"/>
<path d="M158.959 78.206L154.495 80.5516C154.351 80.6273 154.187 80.6611 154.024 80.649C153.861 80.637 153.705 80.5796 153.573 80.4834C153.441 80.3872 153.338 80.2559 153.277 80.1045C153.215 79.953 153.197 79.7874 153.225 79.6263L154.077 74.6553C154.101 74.5153 154.091 74.3717 154.047 74.2367C154.003 74.1017 153.927 73.9793 153.826 73.8802L150.214 70.3619C150.096 70.2477 150.013 70.1028 149.973 69.9436C149.934 69.7844 149.94 69.6173 149.99 69.4613C150.041 69.3052 150.135 69.1666 150.26 69.0611C150.386 68.9556 150.539 68.8875 150.701 68.8645L155.688 68.1381C155.83 68.119 155.964 68.0652 156.079 67.9817C156.195 67.8981 156.288 67.7874 156.35 67.6592L158.582 63.1386C158.654 62.9913 158.766 62.8671 158.905 62.7803C159.044 62.6935 159.205 62.6475 159.369 62.6475C159.533 62.6475 159.694 62.6935 159.833 62.7803C159.972 62.8671 160.084 62.9913 160.156 63.1386L162.388 67.6592C162.45 67.7869 162.542 67.8973 162.657 67.9808C162.772 68.0643 162.905 68.1183 163.046 68.1381L168.037 68.8645C168.199 68.8889 168.35 68.9578 168.475 69.0635C168.599 69.1692 168.692 69.3074 168.743 69.4628C168.793 69.6182 168.8 69.7846 168.761 69.9434C168.722 70.1022 168.64 70.2471 168.524 70.3619L164.92 73.8721C164.819 73.9712 164.743 74.0936 164.699 74.2286C164.655 74.3636 164.645 74.5072 164.669 74.6471L165.521 79.6182C165.549 79.7798 165.532 79.9461 165.47 80.0982C165.408 80.2503 165.305 80.382 165.173 80.4784C165.04 80.5748 164.883 80.632 164.719 80.6435C164.555 80.655 164.392 80.6203 164.247 80.5435L159.783 78.1979C159.656 78.1317 159.514 78.0977 159.37 78.0992C159.226 78.1006 159.085 78.1373 158.959 78.206V78.206Z" fill="#FFC040"/>
<path d="M159.775 78.206L164.239 80.5516C164.383 80.6285 164.547 80.6631 164.711 80.6516C164.874 80.6401 165.032 80.5829 165.164 80.4865C165.297 80.3901 165.4 80.2584 165.462 80.1063C165.523 79.9543 165.541 79.788 165.513 79.6263L165.484 79.4559C164.169 78.9903 162.93 78.3326 161.808 77.504C159.373 75.6779 157.75 72.8251 157.977 69.9317C158.082 68.9211 158.41 67.9465 158.938 67.0783C159.466 66.2101 160.18 65.4702 161.029 64.912L160.156 63.1386C160.084 62.9913 159.972 62.8671 159.833 62.7803C159.694 62.6935 159.533 62.6475 159.369 62.6475C159.205 62.6475 159.044 62.6935 158.905 62.7803C158.766 62.8671 158.654 62.9913 158.582 63.1386L156.35 67.6592C156.287 67.7874 156.195 67.8981 156.079 67.9817C155.964 68.0652 155.829 68.119 155.688 68.1381L150.717 68.8645C150.555 68.8875 150.402 68.9556 150.276 69.0611C150.151 69.1666 150.057 69.3052 150.007 69.4613C149.956 69.6173 149.95 69.7844 149.989 69.9436C150.029 70.1028 150.112 70.2477 150.23 70.3619L153.842 73.8802C153.943 73.9793 154.019 74.1017 154.063 74.2367C154.107 74.3717 154.117 74.5153 154.093 74.6553L153.241 79.6263C153.214 79.7874 153.231 79.953 153.293 80.1045C153.354 80.2559 153.457 80.3872 153.589 80.4834C153.721 80.5796 153.878 80.637 154.041 80.649C154.204 80.6611 154.367 80.6273 154.511 80.5516L158.975 78.206C159.099 78.1426 159.236 78.1096 159.375 78.1096C159.514 78.1096 159.651 78.1426 159.775 78.206Z" fill="#F3A402"/>
<path d="M187.004 78.206L182.54 80.5516C182.395 80.6285 182.232 80.6631 182.068 80.6516C181.904 80.6401 181.747 80.5829 181.614 80.4865C181.482 80.3901 181.379 80.2584 181.317 80.1063C181.255 79.9543 181.238 79.788 181.266 79.6263L182.118 74.6553C182.142 74.5153 182.132 74.3717 182.088 74.2367C182.044 74.1017 181.968 73.9793 181.867 73.8802L178.255 70.3619C178.139 70.2471 178.057 70.1022 178.018 69.9434C177.979 69.7846 177.986 69.6182 178.036 69.4628C178.087 69.3074 178.179 69.1692 178.304 69.0635C178.429 68.9578 178.58 68.8889 178.742 68.8645L183.733 68.1381C183.874 68.1183 184.007 68.0643 184.122 67.9808C184.236 67.8973 184.329 67.7869 184.391 67.6592L186.623 63.1386C186.695 62.9913 186.807 62.8671 186.946 62.7803C187.085 62.6935 187.246 62.6475 187.41 62.6475C187.574 62.6475 187.735 62.6935 187.874 62.7803C188.013 62.8671 188.125 62.9913 188.197 63.1386L190.429 67.6592C190.491 67.7874 190.584 67.8981 190.7 67.9817C190.815 68.0652 190.949 68.119 191.09 68.1381L196.078 68.8645C196.24 68.8875 196.393 68.9556 196.518 69.0611C196.644 69.1666 196.738 69.3052 196.788 69.4613C196.839 69.6173 196.845 69.7844 196.805 69.9436C196.766 70.1028 196.683 70.2477 196.565 70.3619L192.953 73.8802C192.852 73.9793 192.776 74.1017 192.732 74.2367C192.688 74.3717 192.678 74.5153 192.701 74.6553L193.554 79.6263C193.581 79.7874 193.563 79.953 193.502 80.1045C193.441 80.2559 193.338 80.3872 193.206 80.4834C193.074 80.5796 192.917 80.637 192.754 80.649C192.591 80.6611 192.428 80.6273 192.283 80.5516L187.82 78.206C187.694 78.1406 187.554 78.1064 187.412 78.1064C187.27 78.1064 187.13 78.1406 187.004 78.206V78.206Z" fill="#FFC040"/>
<path d="M187.824 78.206L192.287 80.5516C192.432 80.6273 192.595 80.6611 192.758 80.649C192.921 80.637 193.078 80.5796 193.21 80.4834C193.342 80.3872 193.445 80.2559 193.506 80.1045C193.567 79.953 193.585 79.7874 193.558 79.6263L193.529 79.4559C192.222 78.9885 190.992 78.3308 189.877 77.504C187.442 75.6779 185.819 72.8251 186.042 69.9317C186.148 68.9209 186.477 67.9461 187.005 67.0779C187.534 66.2098 188.248 65.47 189.098 64.912L188.221 63.1386C188.149 62.9913 188.037 62.8671 187.898 62.7803C187.759 62.6935 187.598 62.6475 187.434 62.6475C187.27 62.6475 187.109 62.6935 186.97 62.7803C186.831 62.8671 186.719 62.9913 186.647 63.1386L184.399 67.6592C184.337 67.7869 184.244 67.8973 184.13 67.9808C184.015 68.0643 183.882 68.1183 183.741 68.1381L178.75 68.8645C178.588 68.8889 178.437 68.9578 178.312 69.0635C178.187 69.1692 178.095 69.3074 178.044 69.4628C177.994 69.6182 177.987 69.7846 178.026 69.9434C178.065 70.1022 178.147 70.2471 178.263 70.3619L181.875 73.8802C181.976 73.9793 182.052 74.1017 182.096 74.2367C182.14 74.3717 182.15 74.5153 182.126 74.6553L181.274 79.6263C181.246 79.788 181.263 79.9543 181.325 80.1063C181.387 80.2584 181.49 80.3901 181.622 80.4865C181.755 80.5829 181.912 80.6401 182.076 80.6516C182.24 80.6631 182.403 80.6285 182.548 80.5516L187.012 78.206C187.138 78.1413 187.277 78.1075 187.418 78.1075C187.559 78.1075 187.698 78.1413 187.824 78.206V78.206Z" fill="#F3A402"/>
<path d="M38.716 135.927L31.5658 139.685C31.3339 139.803 31.0739 139.855 30.8145 139.834C30.5551 139.813 30.3065 139.721 30.0963 139.568C29.8862 139.414 29.7226 139.206 29.6238 138.965C29.5251 138.724 29.4949 138.461 29.5368 138.204L30.9043 130.242C30.9427 130.017 30.9259 129.786 30.8552 129.569C30.7845 129.352 30.6621 129.155 30.4985 128.996L24.7118 123.356C24.5247 123.172 24.3925 122.94 24.3301 122.686C24.2677 122.431 24.2775 122.164 24.3584 121.915C24.4394 121.666 24.5883 121.444 24.7884 121.275C24.9884 121.106 25.2317 120.996 25.4909 120.957L33.4893 119.797C33.7148 119.764 33.9291 119.678 34.1136 119.544C34.2981 119.41 34.4474 119.234 34.5484 119.03L38.1236 111.782C38.2393 111.547 38.4187 111.348 38.6414 111.21C38.8641 111.071 39.1212 110.998 39.3836 110.998C39.6459 110.998 39.903 111.071 40.1257 111.21C40.3484 111.348 40.5278 111.547 40.6436 111.782L44.2187 119.03C44.3198 119.234 44.469 119.41 44.6535 119.544C44.8381 119.678 45.0523 119.764 45.2778 119.797L53.2722 120.957C53.5322 120.994 53.7766 121.104 53.9777 121.273C54.1787 121.442 54.3283 121.664 54.4095 121.914C54.4907 122.163 54.5001 122.431 54.4368 122.686C54.3735 122.941 54.2399 123.173 54.0513 123.356L48.2686 128.996C48.1051 129.155 47.9827 129.352 47.912 129.569C47.8413 129.786 47.8244 130.017 47.8628 130.242L49.2304 138.204C49.2722 138.461 49.2421 138.724 49.1433 138.965C49.0445 139.206 48.881 139.414 48.6708 139.568C48.4606 139.721 48.2121 139.813 47.9527 139.834C47.6933 139.855 47.4332 139.803 47.2014 139.685L40.0511 135.927C39.8458 135.817 39.6165 135.76 39.3836 135.76C39.1506 135.76 38.9213 135.817 38.716 135.927Z" fill="#FFC040"/>
<path d="M40.0429 135.928L47.1931 139.685C47.4249 139.804 47.685 139.855 47.9444 139.834C48.2038 139.814 48.4524 139.721 48.6625 139.568C48.8727 139.415 49.0363 139.206 49.135 138.965C49.2338 138.724 49.264 138.461 49.2221 138.204L49.1734 137.928C47.0672 137.183 45.0829 136.13 43.2852 134.804C39.4057 131.878 36.7599 127.304 37.1454 122.67C37.3121 121.05 37.8379 119.487 38.6845 118.096C39.5311 116.705 40.6772 115.52 42.0394 114.627L40.6353 111.787C40.5196 111.551 40.3402 111.353 40.1175 111.214C39.8948 111.075 39.6377 111.002 39.3753 111.002C39.113 111.002 38.8559 111.075 38.6332 111.214C38.4104 111.353 38.231 111.551 38.1153 111.787L34.5402 119.034C34.4391 119.238 34.2899 119.415 34.1053 119.548C33.9208 119.682 33.7066 119.769 33.481 119.801L25.4948 120.945C25.2357 120.984 24.9923 121.094 24.7923 121.263C24.5922 121.432 24.4433 121.654 24.3624 121.903C24.2814 122.152 24.2716 122.419 24.334 122.674C24.3964 122.928 24.5286 123.16 24.7157 123.344L30.5024 128.984C30.666 129.144 30.7884 129.34 30.8591 129.557C30.9298 129.774 30.9466 130.005 30.9082 130.23L29.5407 138.192C29.4988 138.449 29.529 138.712 29.6277 138.953C29.7265 139.194 29.8901 139.402 30.1002 139.556C30.3104 139.709 30.559 139.801 30.8184 139.822C31.0778 139.843 31.3378 139.791 31.5697 139.673L38.7159 135.928C38.9201 135.819 39.148 135.762 39.3794 135.762C39.6107 135.762 39.8386 135.819 40.0429 135.928V135.928Z" fill="#F3A402"/>
<path d="M217.05 70.0944L209.9 73.8724C209.668 73.9921 209.407 74.0449 209.147 74.0249C208.887 74.0049 208.638 73.9128 208.427 73.759C208.216 73.6052 208.053 73.3958 207.954 73.1542C207.856 72.9126 207.827 72.6484 207.871 72.3912L209.234 64.4294C209.272 64.2044 209.256 63.9734 209.185 63.7564C209.114 63.5393 208.992 63.3428 208.828 63.1835L203.046 57.5429C202.858 57.3594 202.726 57.1274 202.664 56.8729C202.601 56.6185 202.611 56.3516 202.692 56.1024C202.773 55.8532 202.922 55.6315 203.122 55.4623C203.322 55.2931 203.565 55.1831 203.825 55.1446L211.819 53.984C212.044 53.9517 212.259 53.865 212.443 53.7314C212.628 53.5977 212.777 53.4212 212.878 53.217L216.457 45.9491C216.573 45.7137 216.752 45.5154 216.975 45.3767C217.198 45.2381 217.455 45.1646 217.717 45.1646C217.98 45.1646 218.237 45.2381 218.459 45.3767C218.682 45.5154 218.862 45.7137 218.977 45.9491L222.544 53.1967C222.645 53.4009 222.795 53.5774 222.979 53.7111C223.164 53.8447 223.378 53.9314 223.603 53.9637L231.602 55.1243C231.861 55.1628 232.104 55.2728 232.304 55.442C232.504 55.6112 232.653 55.8329 232.734 56.0821C232.815 56.3313 232.825 56.5982 232.763 56.8526C232.7 57.1071 232.568 57.3391 232.381 57.5226L226.602 63.1632C226.439 63.3225 226.316 63.5191 226.246 63.7361C226.175 63.9531 226.158 64.1841 226.197 64.4091L227.564 72.3709C227.606 72.6277 227.576 72.8911 227.477 73.1319C227.378 73.3726 227.215 73.5813 227.005 73.7347C226.794 73.8881 226.546 73.9803 226.286 74.0011C226.027 74.0218 225.767 73.9702 225.535 73.8521L218.385 70.0944C218.18 69.9842 217.95 69.9266 217.717 69.9266C217.484 69.9266 217.255 69.9842 217.05 70.0944V70.0944Z" fill="#FFC040"/>
<path d="M218.36 70.0939L225.511 73.8719C225.742 73.9901 226.002 74.0416 226.262 74.0209C226.521 74.0002 226.77 73.908 226.98 73.7546C227.19 73.6012 227.354 73.3925 227.452 73.1518C227.551 72.911 227.581 72.6476 227.54 72.3908L227.491 72.1148C225.385 71.3689 223.401 70.3159 221.603 68.9901C217.723 66.0643 215.077 61.4909 215.463 56.8567C215.63 55.2366 216.155 53.674 217.002 52.2827C217.848 50.8914 218.995 49.7063 220.357 48.8137L218.953 45.973C218.837 45.7376 218.658 45.5393 218.435 45.4007C218.212 45.262 217.955 45.1885 217.693 45.1885C217.43 45.1885 217.173 45.262 216.951 45.4007C216.728 45.5393 216.548 45.7376 216.433 45.973L212.858 53.2207C212.757 53.4248 212.607 53.6014 212.423 53.735C212.238 53.8686 212.024 53.9553 211.798 53.9876L203.804 55.1482C203.545 55.1867 203.302 55.2967 203.102 55.4659C202.902 55.6351 202.753 55.8568 202.672 56.106C202.591 56.3552 202.581 56.6221 202.643 56.8766C202.706 57.131 202.838 57.3631 203.025 57.5465L208.808 63.1872C208.971 63.3464 209.094 63.543 209.164 63.76C209.235 63.977 209.252 64.208 209.214 64.433L207.846 72.3948C207.804 72.6517 207.834 72.9151 207.933 73.1558C208.032 73.3966 208.195 73.6052 208.405 73.7586C208.616 73.9121 208.864 74.0043 209.124 74.025C209.383 74.0457 209.643 73.9941 209.875 73.876L217.025 70.1183C217.228 70.0044 217.457 69.9426 217.69 69.9383C217.923 69.9341 218.153 69.9875 218.36 70.0939V70.0939Z" fill="#F3A402"/>
<path d="M150.445 0.0161133H119.064C117.174 0.0161133 115.303 0.388422 113.556 1.11178C111.81 1.83513 110.223 2.89537 108.886 4.23196C107.55 5.56855 106.49 7.15531 105.766 8.90164C105.043 10.648 104.671 12.5197 104.671 14.4099V14.4099C104.674 18.2253 106.192 21.8833 108.891 24.58C111.59 27.2767 115.249 28.7915 119.064 28.7915H128.451C128.657 28.7926 128.862 28.8354 129.051 28.9173L145.547 36.1325C145.832 36.2571 146.144 36.3088 146.454 36.2829C146.764 36.2569 147.063 36.1541 147.324 35.9838C147.584 35.8135 147.798 35.5809 147.946 35.3072C148.095 35.0335 148.172 34.7272 148.173 34.416V30.293C148.173 29.8955 148.33 29.5142 148.611 29.2327C148.892 28.9513 149.273 28.7926 149.67 28.7915H150.445C152.336 28.7915 154.208 28.4191 155.954 27.6955C157.701 26.9719 159.288 25.9113 160.625 24.5743C161.961 23.2372 163.021 21.65 163.744 19.9032C164.468 18.1564 164.839 16.2842 164.839 14.3937V14.3937C164.835 10.579 163.316 6.92207 160.617 4.22622C157.918 1.53037 154.26 0.0161109 150.445 0.0161133V0.0161133Z" fill="#0367B4"/>
<path d="M139.123 27.5418C134.254 25.4113 129.839 21.9377 127.335 17.2547C124.831 12.5718 124.462 6.59834 127.091 1.98031C127.494 1.27154 127.972 0.607704 128.516 0H119.064C117.174 0 115.303 0.372302 113.556 1.09566C111.81 1.81901 110.223 2.87926 108.886 4.21585C107.55 5.55243 106.49 7.1392 105.766 8.88554C105.043 10.6319 104.671 12.5036 104.671 14.3938V14.3938C104.67 16.2844 105.042 18.1565 105.765 19.9033C106.488 21.6501 107.548 23.2374 108.885 24.5744C110.222 25.9114 111.809 26.972 113.555 27.6956C115.302 28.4192 117.174 28.7917 119.064 28.7917H128.451C128.657 28.7927 128.862 28.8355 129.051 28.9175L145.547 36.1326C145.832 36.2573 146.144 36.3089 146.454 36.283C146.764 36.257 147.063 36.1542 147.324 35.9839C147.584 35.8136 147.798 35.5811 147.946 35.3074C148.095 35.0336 148.172 34.7273 148.173 34.4161V30.2931C148.173 30.2607 148.173 30.2323 148.173 30.2039C145.062 29.6736 142.025 28.7801 139.123 27.5418V27.5418Z" fill="#055A9B"/>
<path d="M151.809 12.1619H117.721C117.291 12.1619 116.878 11.9909 116.574 11.6865C116.269 11.3821 116.098 10.9692 116.098 10.5387C116.098 10.1082 116.269 9.69536 116.574 9.39095C116.878 9.08654 117.291 8.91553 117.721 8.91553H151.809C152.239 8.91553 152.652 9.08654 152.957 9.39095C153.261 9.69536 153.432 10.1082 153.432 10.5387C153.432 10.9692 153.261 11.3821 152.957 11.6865C152.652 11.9909 152.239 12.1619 151.809 12.1619Z" fill="white"/>
<path d="M125.286 8.89893H117.705C117.275 8.89893 116.862 9.06994 116.557 9.37435C116.253 9.67876 116.082 10.0916 116.082 10.5221C116.082 10.9526 116.253 11.3655 116.557 11.6699C116.862 11.9743 117.275 12.1453 117.705 12.1453H125.558C125.363 11.0744 125.272 9.98728 125.286 8.89893V8.89893Z" fill="#C5C6D1"/>
<path d="M151.809 19.9007H117.721C117.291 19.9007 116.878 19.7297 116.574 19.4253C116.269 19.1209 116.098 18.708 116.098 18.2775C116.098 17.847 116.269 17.4341 116.574 17.1297C116.878 16.8253 117.291 16.6543 117.721 16.6543H151.809C152.239 16.6543 152.652 16.8253 152.957 17.1297C153.261 17.4341 153.432 17.847 153.432 18.2775C153.432 18.708 153.261 19.1209 152.957 19.4253C152.652 19.7297 152.239 19.9007 151.809 19.9007Z" fill="white"/>
<path d="M116.078 18.2771C116.078 18.7076 116.249 19.1205 116.553 19.4249C116.858 19.7293 117.271 19.9003 117.701 19.9003H129.035C128.397 19.0687 127.827 18.1865 127.331 17.2626C127.221 17.0557 127.12 16.8568 127.018 16.6377H117.685C117.472 16.6398 117.261 16.6839 117.065 16.7674C116.869 16.851 116.691 16.9723 116.542 17.1246C116.393 17.2768 116.275 17.457 116.195 17.6547C116.116 17.8525 116.076 18.064 116.078 18.2771Z" fill="#C5C6D1"/>
<path d="M190.713 27.9232H188.489V25.6953H187.13V27.9232H184.902V29.2785H187.13V31.5064H188.489V29.2785H190.713V27.9232Z" fill="#0367B4"/>
<path d="M32.8113 86.8699H30.5875V84.6421H29.2281V86.8699H27.0002V88.2253H29.2281V90.4532H30.5875V88.2253H32.8113V86.8699Z" fill="#0367B4"/>
<path d="M97.2447 164.776H95.0209V162.552H93.6614V164.776H91.4336V166.135H93.6614V168.363H95.0209V166.135H97.2447V164.776Z" fill="#0367B4"/>
<path d="M260.219 93.3182H257.991V91.0903H256.631V93.3182H254.404V94.6776H256.631V96.9014H257.991V94.6776H260.219V93.3182Z" fill="#0367B4"/>
<path d="M84.1658 14.0405C82.8429 14.0405 82.8429 16.0939 84.1658 16.0939C85.4887 16.0939 85.4806 14.0405 84.1658 14.0405Z" stroke="#FFC040" stroke-width="0.74" stroke-miterlimit="10"/>
<path d="M1.99067 114.193C0.671808 114.193 0.66775 116.246 1.99067 116.246C3.31358 116.246 3.31358 114.193 1.99067 114.193Z" stroke="#FFC040" stroke-width="0.74" stroke-miterlimit="10"/>
<path d="M151.606 168.972C150.287 168.972 150.283 171.025 151.606 171.025C152.929 171.025 152.929 168.972 151.606 168.972Z" stroke="#FFC040" stroke-width="0.74" stroke-miterlimit="10"/>
<path d="M257.484 140.765C256.161 140.765 256.161 142.818 257.484 142.818C258.807 142.818 258.807 140.765 257.484 140.765Z" stroke="#FFC040" stroke-width="0.74" stroke-miterlimit="10"/>
<path d="M229.686 7.90918C228.363 7.90918 228.363 9.96254 229.686 9.96254C231.009 9.96254 231.009 7.90918 229.686 7.90918Z" stroke="#FFC040" stroke-width="0.74" stroke-miterlimit="10"/>
<defs>
<linearGradient id="paint0_linear" x1="236.177" y1="94.626" x2="76.2189" y2="336.277" gradientUnits="userSpaceOnUse">
<stop stop-color="#FE7062"/>
<stop offset="1" stop-color="#FF928E"/>
</linearGradient>
<linearGradient id="paint1_linear" x1="27193.9" y1="16714.5" x2="6528" y2="44275.2" gradientUnits="userSpaceOnUse">
<stop stop-color="#FE7062"/>
<stop offset="1" stop-color="#FF928E"/>
</linearGradient>
<linearGradient id="paint2_linear" x1="57688.2" y1="16306.7" x2="46462.6" y2="49727" gradientUnits="userSpaceOnUse">
<stop stop-color="#FE7062"/>
<stop offset="1" stop-color="#FF928E"/>
</linearGradient>
</defs>
</svg>
