<svg width="649" height="679" viewBox="0 0 649 679" fill="none" xmlns="http://www.w3.org/2000/svg">
<rect width="649" height="679" rx="24" fill="white"/>
<path d="M0 24C0 10.7452 10.7452 0 24 0H625C638.255 0 649 10.7452 649 24V48H0V24Z" fill="url(#paint0_linear)"/>
<circle cx="32" cy="24" r="8" fill="#FF4C44"/>
<circle cx="56" cy="24" r="8" fill="#FFBE00"/>
<circle cx="80" cy="24" r="8" fill="#00D22B"/>
<g opacity="0.5" clip-path="url(#clip0)">
<path d="M469.236 659.549H163.346" stroke="#E9F4FF" stroke-width="0.98" stroke-miterlimit="10" stroke-linecap="round" stroke-linejoin="round"/>
<path d="M268.474 464.343H256.665V469.21H268.474V464.343Z" stroke="#E9F4FF" stroke-width="0.98" stroke-miterlimit="10" stroke-linecap="round" stroke-linejoin="round"/>
<path d="M244.849 464.343H256.665V469.21H244.849" stroke="#E9F4FF" stroke-width="0.98" stroke-miterlimit="10" stroke-linecap="round" stroke-linejoin="round"/>
<path d="M262.566 469.21H250.757V474.076H262.566V469.21Z" stroke="#E9F4FF" stroke-width="0.98" stroke-miterlimit="10" stroke-linecap="round" stroke-linejoin="round"/>
<path d="M259.509 459.477V464.343H252.945V459.477" stroke="#E9F4FF" stroke-width="0.98" stroke-miterlimit="10" stroke-linecap="round" stroke-linejoin="round"/>
<path d="M450.207 544.263H438.398V549.13H450.207V544.263Z" stroke="#E9F4FF" stroke-width="0.98" stroke-miterlimit="10" stroke-linecap="round" stroke-linejoin="round"/>
<path d="M426.589 544.263H438.398V549.13H426.589" stroke="#E9F4FF" stroke-width="0.98" stroke-miterlimit="10" stroke-linecap="round" stroke-linejoin="round"/>
<path d="M444.306 549.129H432.497V553.996H444.306V549.129Z" stroke="#E9F4FF" stroke-width="0.98" stroke-miterlimit="10" stroke-linecap="round" stroke-linejoin="round"/>
<path d="M441.249 539.397V544.263H434.685V539.397" stroke="#E9F4FF" stroke-width="0.98" stroke-miterlimit="10" stroke-linecap="round" stroke-linejoin="round"/>
<path d="M477.177 625.796C477.177 625.796 467.465 625.796 458.634 625.796C449.804 625.796 449.628 631.589 452.628 642.474C455.628 653.36 457.399 659.556 457.399 659.556" stroke="#E9F4FF" stroke-width="0.98" stroke-miterlimit="10" stroke-linecap="round" stroke-linejoin="round"/>
<path d="M467.93 593.188C467.93 593.188 472.292 579.141 455.804 572.598C458.394 576.432 458.394 576.432 458.394 576.432C458.394 576.432 450.143 572.047 441.913 572.598C442.626 590.939 458.86 594.016 467.93 593.188Z" fill="#293E77"/>
<path d="M473.704 625.796C473.704 625.796 479.238 599.208 460.166 585.047" stroke="#E9F4FF" stroke-width="0.98" stroke-miterlimit="10" stroke-linecap="round" stroke-linejoin="round"/>
<path d="M457.576 606.125C455.924 598.613 444.856 603.444 445.922 610.765C446.981 618.079 450.884 621.269 450.884 621.269C450.884 621.269 457.343 617.845 461.232 615.249C465.114 612.654 465.933 602.079 457.576 606.125Z" fill="#293E77"/>
<path d="M474.375 614.061C471.001 602.978 463.462 598.96 457.103 607.455" stroke="#E9F4FF" stroke-width="0.98" stroke-miterlimit="10" stroke-linecap="round" stroke-linejoin="round"/>
<path d="M472.998 631.058H450.99" stroke="#E9F4FF" stroke-width="0.98" stroke-miterlimit="10" stroke-linecap="round" stroke-linejoin="round"/>
<path d="M299.686 540.359C303.335 532.189 342.276 522.987 353.125 531.065C348.784 542.686 348.784 542.686 348.784 542.686L309.575 547.757L299.686 540.359Z" fill="#100D14"/>
<path d="M352.299 466.126C362.089 475.908 359.972 488.06 362.795 497.616C365.619 507.172 372.924 518.029 365.739 526.991C358.553 535.959 342.192 537.254 337.364 526.991C332.536 516.727 323.12 515.426 316.817 519.557C310.521 523.687 299.1 523.921 296.27 514.952C293.446 505.983 304.627 498.316 311.812 498.79C318.998 499.271 325.082 458.232 352.299 466.126Z" fill="#100D14"/>
<path d="M316.174 512.483L311.346 546.696L339.834 545.989L346.314 507.928L316.174 512.483Z" fill="#E5987D"/>
<path d="M313.902 528.589L337.039 512.215L316.174 512.483L313.902 528.589Z" fill="#DB785E"/>
<path d="M337.484 469.061C322.936 464.803 306.518 476.021 305.813 494.546C305.107 513.07 318.765 519.323 332.543 516.727C346.321 514.131 354.558 501.272 352.927 487.536C351.72 477.457 345.135 471.303 337.484 469.061Z" fill="#E5987D"/>
<path d="M305.418 482.833L332.303 487.586C332.303 487.586 337.011 479.091 343.251 477.436C337.95 485.577 342.425 492.721 342.425 492.721L341.013 499.738L345.961 501.272C345.961 501.272 348.382 495.953 352.645 496.194C360.085 495.373 360.558 477.323 354.671 468.828C351.565 464.35 341.19 455.849 323.261 459.746C310.041 462.618 304.909 473.51 303.124 479.034C302.573 480.732 303.66 482.521 305.418 482.833Z" fill="#100D14"/>
<path d="M317.967 504.781C317.967 504.781 321.765 507.433 325.823 504.25" stroke="#100D14" stroke-width="0.98" stroke-miterlimit="10" stroke-linecap="round" stroke-linejoin="round"/>
<path d="M317.967 490.627L313.231 499.914L316.817 500.89" stroke="#100D14" stroke-width="0.98" stroke-miterlimit="10" stroke-linecap="round" stroke-linejoin="round"/>
<path d="M312.187 494.015L312.017 493.98C311.551 493.881 311.248 493.407 311.354 492.94L311.678 491.462C311.777 490.995 312.25 490.691 312.716 490.797L312.885 490.832C313.351 490.931 313.655 491.405 313.549 491.872L313.224 493.35C313.118 493.817 312.652 494.114 312.187 494.015Z" fill="#100D14"/>
<path d="M308.664 499.674C312.492 499.674 315.596 496.564 315.596 492.728C315.596 488.892 312.492 485.782 308.664 485.782C304.836 485.782 301.733 488.892 301.733 492.728C301.733 496.564 304.836 499.674 308.664 499.674Z" stroke="#100D14" stroke-width="0.98" stroke-miterlimit="10" stroke-linecap="round" stroke-linejoin="round"/>
<path d="M329.19 496.434L329.021 496.399C328.555 496.3 328.251 495.826 328.357 495.359L328.682 493.881C328.781 493.414 329.254 493.11 329.72 493.216L329.889 493.251C330.355 493.35 330.658 493.824 330.552 494.291L330.228 495.769C330.129 496.236 329.663 496.54 329.19 496.434Z" fill="#100D14"/>
<path d="M325.823 501.768C329.651 501.768 332.755 498.658 332.755 494.822C332.755 490.986 329.651 487.876 325.823 487.876C321.995 487.876 318.892 490.986 318.892 494.822C318.892 498.658 321.995 501.768 325.823 501.768Z" stroke="#100D14" stroke-width="0.98" stroke-miterlimit="10" stroke-linecap="round" stroke-linejoin="round"/>
<path d="M349.137 494.341C354.085 489.559 359.344 491.688 358.701 498.054C358.059 504.427 352.561 509.626 346.653 508.706C343.575 502.574 349.137 494.341 349.137 494.341Z" fill="#E5987D"/>
<path d="M355.631 495.274C352.278 494.171 348.742 499.787 350.598 504.653" stroke="#100D14" stroke-width="0.98" stroke-miterlimit="10" stroke-linecap="round" stroke-linejoin="round"/>
<path d="M350.104 501.272C350.111 498.146 355.01 498.542 354.699 500.89" stroke="#100D14" stroke-width="0.98" stroke-miterlimit="10" stroke-linecap="round" stroke-linejoin="round"/>
<path d="M299.686 540.359C299.686 540.359 302.778 544.871 321.892 544.787C341.013 544.695 353.125 531.072 353.125 531.072L350.429 545.876C350.429 545.876 353.019 543.987 369.974 540.274C386.928 536.56 395.758 545.543 396.287 560.34C396.817 575.137 379.157 591.066 379.157 591.066L368.802 659.556H292.444V590.005C292.444 590.005 276.019 577.083 277.431 563.106C278.842 549.122 291.47 543.287 302.171 546.703C301.098 544.857 299.686 540.359 299.686 540.359Z" fill="#C9493B"/>
<path d="M330.122 581.885H354.022" stroke="#100D14" stroke-width="0.98" stroke-miterlimit="10" stroke-linecap="round" stroke-linejoin="round"/>
<path d="M330.122 577.585H354.022V593.705C354.022 597.227 351.17 600.085 347.655 600.085H336.489C332.973 600.085 330.122 597.227 330.122 593.705V577.585Z" stroke="#100D14" stroke-width="0.98" stroke-miterlimit="10" stroke-linecap="round" stroke-linejoin="round"/>
<path d="M279.915 554.958C268.255 574.777 259.065 597.071 259.065 597.071L292.444 603.975L294.032 574.954L279.915 554.958Z" fill="#C9493B"/>
<path d="M294.039 574.954L292.444 620.088" stroke="#100D14" stroke-width="0.98" stroke-miterlimit="10" stroke-linecap="round" stroke-linejoin="round"/>
<path d="M347.725 558.494L353.125 531.065" stroke="#100D14" stroke-width="0.98" stroke-miterlimit="10" stroke-linecap="round" stroke-linejoin="round"/>
<path d="M306.631 556.974L299.686 540.359" stroke="#100D14" stroke-width="0.98" stroke-miterlimit="10" stroke-linecap="round" stroke-linejoin="round"/>
<path d="M288.505 578.858L293.7 584.453" stroke="#100D14" stroke-width="0.98" stroke-miterlimit="10" stroke-linecap="round" stroke-linejoin="round"/>
<path d="M430.111 576.368C435.088 577.486 430.26 591.413 412.247 598.493C394.234 605.573 380.752 598.493 380.752 598.493C380.752 598.493 391.82 572.775 430.111 576.368Z" fill="#100D14"/>
<path d="M410.242 568.948C410.242 568.948 421.931 588.852 433.026 603.982C452.098 629.997 415.917 651.719 396.302 622.033C380.745 598.493 378.726 595.31 378.726 595.31L410.242 568.948Z" fill="#E5987D"/>
<path d="M424.309 591.406L380.752 598.493C380.752 598.493 382.693 584.509 413.157 573.801C424.309 591.406 424.309 591.406 424.309 591.406Z" fill="#DB785E"/>
<path d="M375.543 539.482C393.626 538.145 397.269 555.665 413.686 566.02C430.111 576.375 430.111 576.375 430.111 576.375C430.111 576.375 407.242 578.32 392.758 587.523C379.947 595.664 380.752 598.493 380.752 598.493C380.752 598.493 367.15 577.429 362.915 566.989C358.673 556.549 359.915 540.635 375.543 539.482Z" fill="#C9493B"/>
<path d="M436.46 626.134C441.268 616.414 437.302 604.629 427.602 599.812C417.903 594.994 406.142 598.968 401.335 608.688C396.527 618.408 400.493 630.193 410.193 635.011C419.892 639.828 431.653 635.854 436.46 626.134Z" fill="#E5987D"/>
<path d="M408.576 600.728L349.49 632.826L366.727 656.67L430.111 633.541L408.576 600.728Z" fill="#E5987D"/>
<path d="M365.357 647.694H348.925C345.142 647.694 342.072 644.617 342.072 640.826V639.461C342.072 635.67 345.142 632.593 348.925 632.593H365.357C369.141 632.593 372.211 635.67 372.211 639.461V640.826C372.218 644.617 369.148 647.694 365.357 647.694Z" fill="#E5987D"/>
<path d="M351.643 647.779H350.761C348.319 647.779 346.314 645.777 346.314 643.323V631.617C346.314 629.169 348.312 627.161 350.761 627.161H351.643C354.085 627.161 356.09 629.162 356.09 631.617V643.323C356.083 645.777 354.085 647.779 351.643 647.779Z" fill="#E5987D"/>
<path d="M350.775 634.503L350.013 634.948C347.895 636.172 345.163 635.436 343.942 633.314L338.098 623.171C336.877 621.049 337.611 618.312 339.729 617.089L340.491 616.643C342.608 615.419 345.34 616.155 346.561 618.277L352.405 628.42C353.626 630.535 352.892 633.272 350.775 634.503Z" fill="#E5987D"/>
<path d="M361.412 647.779H360.53C358.087 647.779 356.083 645.777 356.083 643.323V631.617C356.083 629.169 358.08 627.161 360.53 627.161H361.412C363.854 627.161 365.859 629.162 365.859 631.617V643.323C365.859 645.777 363.861 647.779 361.412 647.779Z" fill="#E5987D"/>
<path d="M371.188 647.779H370.305C367.863 647.779 365.859 645.777 365.859 643.323V631.617C365.859 629.169 367.856 627.161 370.305 627.161H371.188C373.63 627.161 375.635 629.162 375.635 631.617V643.323C375.635 645.777 373.63 647.779 371.188 647.779Z" fill="#E5987D"/>
<path d="M355.278 629.382C355.786 630.153 356.083 631.072 356.083 632.062V642.884C356.083 645.579 353.881 647.779 351.198 647.779C348.509 647.779 346.314 645.572 346.314 642.884V632.062C346.314 629.368 348.516 627.168 351.198 627.168" stroke="#100D14" stroke-width="0.98" stroke-miterlimit="10" stroke-linecap="round" stroke-linejoin="round"/>
<path d="M363.494 627.875C364.906 628.738 365.859 630.294 365.859 632.062V642.884C365.859 645.579 363.656 647.779 360.974 647.779C358.285 647.779 356.09 645.572 356.09 642.884V632.062C356.09 630.245 357.092 628.646 358.574 627.804" stroke="#100D14" stroke-width="0.98" stroke-miterlimit="10" stroke-linecap="round" stroke-linejoin="round"/>
<path d="M375.635 634.481V642.884C375.635 645.579 373.432 647.779 370.75 647.779C368.061 647.779 365.866 645.572 365.866 642.884V632.062C365.866 629.368 368.068 627.168 370.75 627.168C375.635 627.168 380.244 627.168 380.244 627.168" stroke="#100D14" stroke-width="0.98" stroke-miterlimit="10" stroke-linecap="round" stroke-linejoin="round"/>
<path d="M340.11 616.862C334.308 620.675 334.188 634.595 334.068 640.14C333.948 645.685 343.483 647.22 344.549 638.959C345.608 630.697 346.314 625.789 346.314 625.789L340.11 616.862Z" fill="#E5987D"/>
<path d="M340.11 616.862C334.308 620.675 334.188 634.595 334.068 640.14C333.948 645.685 343.483 647.22 344.549 638.959C345.608 630.697 346.314 625.789 346.314 625.789" stroke="#100D14" stroke-width="0.98" stroke-miterlimit="10" stroke-linecap="round" stroke-linejoin="round"/>
<path d="M375.635 637.077C375.635 637.077 376.284 642.036 380.244 642.474" stroke="#100D14" stroke-width="0.98" stroke-miterlimit="10" stroke-linecap="round" stroke-linejoin="round"/>
<path d="M405.054 602.645L355.419 629.608" stroke="#100D14" stroke-width="0.98" stroke-miterlimit="10" stroke-linecap="round" stroke-linejoin="round"/>
<path d="M389.194 611.26L364.56 572.598" stroke="#100D14" stroke-width="0.98" stroke-miterlimit="10" stroke-linecap="round" stroke-linejoin="round"/>
<path d="M393.527 602.645L389.194 611.26" stroke="#100D14" stroke-width="0.98" stroke-miterlimit="10" stroke-linecap="round" stroke-linejoin="round"/>
<path d="M405.95 559.966C409.141 563.021 412.303 565.575 415.289 566.841" stroke="#EFF6FF" stroke-width="0.98" stroke-miterlimit="10" stroke-linecap="round" stroke-linejoin="round"/>
<path d="M350.436 545.685C367.863 539.552 378.649 536.072 387.09 541.646C391.121 544.306 395.659 549.292 400.29 554.187" stroke="#EFF6FF" stroke-width="0.98" stroke-miterlimit="10" stroke-linecap="round" stroke-linejoin="round"/>
<path d="M253.919 505.87C249.501 520.391 222.417 604.279 222.417 604.279L253.919 613.835L280.346 539.383C280.346 539.383 290.877 537.112 294.83 536.256C300.011 535.139 301.719 525.286 291.943 526.877C282.167 528.469 282.167 528.469 282.167 528.469L286.049 512.894L253.919 505.87Z" fill="#E5987D"/>
<path d="M235.017 565.178L265.636 580.817L259.036 604.512L227.74 587.77L235.017 565.178Z" fill="#DB785E"/>
<path d="M299.509 496.639C305.34 492.572 310.902 499.271 304.719 503.974C298.535 508.678 283.522 520.356 283.522 520.356L277.784 511.769C277.791 511.776 294.787 499.943 299.509 496.639Z" fill="#E5987D"/>
<path d="M261.564 503.713C264.394 505.134 265.552 508.409 264.161 511.019C262.771 513.629 259.347 514.591 256.517 513.169C253.686 511.748 252.529 508.473 253.919 505.863C255.317 503.253 258.733 502.291 261.564 503.713Z" fill="#E5987D"/>
<path d="M268.798 505.962C271.629 507.384 272.786 510.658 271.396 513.268C270.005 515.878 266.582 516.84 263.752 515.419C260.921 513.997 259.764 510.722 261.154 508.112C262.545 505.502 265.968 504.54 268.798 505.962Z" fill="#E5987D"/>
<path d="M268.118 505.666L260.622 503.335L257.458 513.557L264.954 515.887L268.118 505.666Z" fill="#E5987D"/>
<path d="M271.205 504.088C273.88 505.439 274.981 508.529 273.662 511.005C272.342 513.474 269.102 514.386 266.427 513.042C263.752 511.691 262.65 508.6 263.97 506.125C265.29 503.656 268.53 502.744 271.205 504.088Z" fill="#E5987D"/>
<path d="M278.052 506.217C280.727 507.568 281.828 510.659 280.508 513.134C279.188 515.603 275.948 516.515 273.273 515.171C270.598 513.82 269.497 510.729 270.817 508.254C272.137 505.785 275.377 504.873 278.052 506.217Z" fill="#E5987D"/>
<path d="M277.412 505.93L270.32 503.725L267.325 513.399L274.417 515.604L277.412 505.93Z" fill="#E5987D"/>
<path d="M278.906 514.938C278.906 514.938 282.287 520.229 284.567 524.968C286.846 529.707 295.38 526.05 292.133 517.619C289.952 511.96 286.501 508.508 286.501 508.508L278.906 514.938Z" fill="#E5987D"/>
<path d="M287.686 509.916C289.07 512.349 288.223 515.44 285.802 516.826C283.374 518.213 280.289 517.364 278.906 514.938C277.522 512.505 278.369 509.414 280.79 508.027C283.211 506.641 286.303 507.49 287.686 509.916Z" fill="#E5987D"/>
<path d="M278.906 514.938C278.906 514.938 282.287 520.228 284.567 524.967C286.847 529.706 295.38 526.05 292.133 517.618C289.952 511.96 286.501 508.508 286.501 508.508C284.927 506.804 281.426 506.995 280.028 508.565" stroke="#100D14" stroke-width="0.98" stroke-miterlimit="10" stroke-linecap="round" stroke-linejoin="round"/>
<path d="M271.177 510.955C271.177 510.955 271.488 517.088 271.135 522.223C270.782 527.358 279.795 528.391 281.115 519.655C281.998 513.785 280.741 509.18 280.741 509.18L271.177 510.955Z" fill="#E5987D"/>
<path d="M281.064 510.956C281.064 513.693 278.848 515.914 276.116 515.914C273.385 515.914 271.168 513.693 271.168 510.956C271.168 508.218 273.385 505.997 276.116 505.997C278.848 506.004 281.064 508.218 281.064 510.956Z" fill="#E5987D"/>
<path d="M279.209 507.087C281.235 509.647 281.736 514.117 281.221 518.906C280.706 523.694 278.645 526.333 274.699 526.163C270.753 525.993 270.521 521.332 270.521 521.332" stroke="#100D14" stroke-width="0.98" stroke-miterlimit="10" stroke-linecap="round" stroke-linejoin="round"/>
<path d="M262.107 511.125C262.107 511.125 262.425 517.258 262.065 522.393C261.712 527.528 270.725 528.561 272.045 519.825C272.927 513.954 271.671 509.35 271.671 509.35L262.107 511.125Z" fill="#E5987D"/>
<path d="M272.001 511.125C272.001 513.863 269.785 516.084 267.053 516.084C264.321 516.084 262.105 513.863 262.105 511.125C262.105 508.388 264.321 506.167 267.053 506.167C269.785 506.167 272.001 508.388 272.001 511.125Z" fill="#E5987D"/>
<path d="M262.785 503.974C262.785 503.974 267.118 505.495 270.111 506.867C273.104 508.239 272.356 516.232 272.116 519.344C271.869 522.457 269.737 526.113 266.271 526.319C262.806 526.524 261.818 524.564 262.192 519.854C262.566 515.143 262.107 511.125 262.107 511.125" stroke="#100D14" stroke-width="0.98" stroke-miterlimit="10" stroke-linecap="round" stroke-linejoin="round"/>
<path d="M257.455 513.551L262.248 515.051" stroke="#100D14" stroke-width="0.98" stroke-miterlimit="10" stroke-linecap="round" stroke-linejoin="round"/>
<path d="M265.34 536.787C265.34 536.787 266.624 531.51 272.384 530.004" stroke="#100D14" stroke-width="0.98" stroke-miterlimit="10" stroke-linecap="round" stroke-linejoin="round"/>
<path d="M276.817 539.913L294.011 536.433" stroke="#100D14" stroke-width="0.98" stroke-miterlimit="10" stroke-linecap="round" stroke-linejoin="round"/>
<path d="M486 456.994V501.746C486 507.263 481.532 511.741 476.026 511.741H413.588L387.577 519.493C385.813 520.023 384.366 518.029 385.418 516.508L395.603 501.739V456.994C395.603 456.443 395.652 455.898 395.737 455.368C396.506 450.614 400.614 447 405.569 447H476.026C480.981 447 485.089 450.614 485.866 455.36C485.951 455.898 486 456.443 486 456.994Z" fill="#EFF6FF"/>
<path d="M431.269 480.555V470.497C431.269 468.969 432.921 468.007 434.248 468.778L442.944 473.807L451.64 478.836C452.959 479.6 452.959 481.517 451.64 482.281L442.944 487.31L434.248 492.339C432.928 493.103 431.269 492.148 431.269 490.62V480.555Z" fill="#95BAEA"/>
<path d="M485.859 455.36H395.737C396.506 450.614 400.614 447 405.569 447H476.026C480.981 447 485.089 450.614 485.859 455.36Z" fill="#293E77"/>
<path d="M408.125 451.18C408.125 451.697 407.701 452.121 407.186 452.121C406.671 452.121 406.247 451.697 406.247 451.18C406.247 450.664 406.671 450.24 407.186 450.24C407.701 450.24 408.125 450.664 408.125 451.18Z" fill="#C9493B"/>
<path d="M412.303 452.121C412.822 452.121 413.242 451.7 413.242 451.18C413.242 450.661 412.822 450.24 412.303 450.24C411.785 450.24 411.365 450.661 411.365 451.18C411.365 451.7 411.785 452.121 412.303 452.121Z" fill="#E6C75B"/>
<path d="M417.428 452.121C417.946 452.121 418.366 451.7 418.366 451.18C418.366 450.661 417.946 450.24 417.428 450.24C416.909 450.24 416.489 450.661 416.489 451.18C416.489 451.7 416.909 452.121 417.428 452.121Z" fill="#5E9F63"/>
<path d="M206.19 586.462H312.624C314.156 586.462 315.532 587.374 316.132 588.782L344.041 654.223C345.114 656.748 343.272 659.549 340.533 659.549H233.443C231.904 659.549 230.513 658.622 229.921 657.193L202.668 591.76C201.616 589.234 203.466 586.462 206.19 586.462Z" fill="#EFF6FF"/>
<path d="M413.164 647.779H335.542V659.549H413.164V647.779Z" fill="#EFF6FF"/>
<path d="M341.295 647.779H225.996L230.902 659.549H346.314L341.295 647.779Z" fill="#95BAEA"/>
<path d="M275.518 618.397C276.676 622.542 274.262 625.909 270.125 625.909C265.989 625.909 261.691 622.549 260.533 618.397C259.375 614.252 261.789 610.885 265.926 610.885C270.062 610.885 274.353 614.245 275.518 618.397Z" fill="#4663D8"/>
<path opacity="0.15" d="M239.958 679H477.346C478.13 679 478.772 678.363 478.772 677.571V677.288C478.772 676.503 478.137 675.859 477.346 675.859H239.958C239.174 675.859 238.532 676.496 238.532 677.288V677.571C238.532 678.363 239.174 679 239.958 679Z" fill="black"/>
<path d="M385.884 679H477.346C478.13 679 478.772 678.363 478.772 677.571V677.288C478.772 676.503 478.137 675.859 477.346 675.859H385.884C385.1 675.859 384.458 676.496 384.458 677.288V677.571C384.465 678.363 385.1 679 385.884 679Z" fill="#293E77"/>
</g>
<path d="M360.875 81.7539C360.875 85.4657 358.327 87.9714 354.595 87.9714C350.819 87.9714 348.271 85.4657 348.271 81.7539C348.271 78.066 350.819 75.5818 354.595 75.5818C358.327 75.5842 360.875 78.066 360.875 81.7539ZM351.199 81.7994C351.199 83.9867 352.585 85.4873 354.595 85.4873C356.561 85.4873 357.946 83.9843 357.946 81.7994C357.946 79.6144 356.561 78.1114 354.595 78.1114C352.585 78.1114 351.199 79.6144 351.199 81.7994Z" fill="#0367B4"/>
<path d="M375.575 80.2498V87.8554H372.649V81.1162C372.649 79.4074 371.644 78.3616 369.991 78.3616C368.025 78.3831 366.863 79.8645 366.863 81.8676V87.8554H363.958V75.674H366.863V77.95C367.713 76.3322 369.209 75.5807 371.153 75.5592C373.901 75.5592 375.575 77.3588 375.575 80.2498Z" fill="#0367B4"/>
<path d="M383.522 99.5295H340.324V64H383.522V99.5295ZM342.644 97.1674H381.204V66.3621H342.644V97.1674Z" fill="#0367B4"/>
<path d="M309.884 110.617C309.884 111.68 310.72 112.367 312.087 112.367C313.827 112.367 315.194 111.421 315.356 110.194V109.059H312.225C310.626 109.057 309.884 109.507 309.884 110.617Z" fill="#0367B4"/>
<path d="M279.996 108.372H285.7L282.871 101.425L279.996 108.372Z" fill="#0367B4"/>
<path d="M327.739 112.151C329.686 112.151 331.264 110.427 331.264 108.301C331.264 106.174 329.686 104.45 327.739 104.45C325.792 104.45 324.214 106.174 324.214 108.301C324.214 110.427 325.792 112.151 327.739 112.151Z" fill="#0367B4"/>
<path d="M266 87.7788V124H342.498V87.7788H266ZM288.251 114.585L286.814 111.089H278.883L277.446 114.585H274.222L281.34 98.0432H284.564L291.59 114.585H288.251ZM302.419 114.585L299.056 109.057L297.154 111.089V114.585H294.138V97.05H297.154V107.212L302.254 101.966H305.732L301.141 106.833L306.012 114.585H302.419ZM315.379 114.585V113.049C314.522 114.159 313.13 114.726 311.368 114.726C308.701 114.726 307.033 113.049 307.033 110.804C307.033 108.463 308.726 107.023 311.739 106.999H315.356V106.668C315.356 105.204 314.405 104.328 312.55 104.328C311.389 104.328 310.138 104.73 308.863 105.51L307.773 103.382C309.558 102.365 310.95 101.822 313.221 101.822C316.467 101.822 318.298 103.5 318.322 106.312L318.345 114.583H315.379V114.585ZM334.277 114.585H331.261V112.553C330.381 113.948 328.944 114.726 327.088 114.726C323.54 114.726 321.175 112.079 321.175 108.229C321.175 104.4 323.54 101.824 327.018 101.824C328.92 101.824 330.357 102.605 331.261 104.021V97.05H334.277V114.585Z" fill="#0367B4"/>
<defs>
<linearGradient id="paint0_linear" x1="24.3593" y1="24" x2="649" y2="24" gradientUnits="userSpaceOnUse">
<stop stop-color="#036BB3"/>
<stop offset="0.0001" stop-color="#036BB3"/>
<stop offset="1" stop-color="#03B0A9"/>
</linearGradient>
<clipPath id="clip0">
<rect width="323" height="232" fill="white" transform="translate(163 447)"/>
</clipPath>
</defs>
</svg>
