<svg width="649" height="682" viewBox="0 0 649 682" fill="none" xmlns="http://www.w3.org/2000/svg">
<rect width="649" height="682" rx="24" fill="white"/>
<path d="M0 24C0 10.7452 10.7452 0 24 0H625C638.255 0 649 10.7452 649 24V48H0V24Z" fill="url(#paint0_linear)"/>
<circle cx="32" cy="24" r="8" fill="#FF4C44"/>
<circle cx="56" cy="24" r="8" fill="#FFBE00"/>
<circle cx="80" cy="24" r="8" fill="#00D22B"/>
<g opacity="0.5" clip-path="url(#clip0)">
<path d="M253.211 538.442L237.031 541.623L240.724 517.767L250.674 517.97C250.612 518.39 250.547 518.797 250.509 519.217C250.141 522.424 250.331 525.642 250.737 528.518C251.548 534.167 253.211 538.442 253.211 538.442Z" fill="#F9B384"/>
<path d="M250.736 528.518C244.518 525.579 242.208 519.407 242.208 519.407L250.509 519.217C250.139 522.424 250.329 525.642 250.736 528.518Z" fill="#102048"/>
<path d="M254.158 504.191C254.793 506.416 258.388 520.52 251.831 522.109C245.273 523.7 238.506 517.655 238.506 517.655L240.726 504.083L250.244 501.221L254.158 504.191Z" fill="#F9B384"/>
<path d="M245.474 511.865C245.474 511.865 247.179 500.586 254.158 504.191C253.908 504.061 253.547 502.937 253.391 502.68C252.687 501.522 251.782 500.472 250.687 499.67C246.715 496.751 240.017 497.813 236.814 501.169C233.661 504.474 233.562 510.347 235.187 514.618C235.45 515.308 235.782 515.972 236.181 516.593C236.545 517.159 236.973 517.628 237.456 518.093C237.871 518.493 240.985 520.951 241.018 519.061C241.096 514.45 245.474 511.865 245.474 511.865Z" fill="#EB5D60"/>
<path d="M247.01 514.448C248.197 513.474 248.185 511.49 246.982 510.016C245.779 508.542 243.842 508.136 242.655 509.11C241.467 510.083 241.48 512.067 242.682 513.542C243.885 515.016 245.822 515.422 247.01 514.448Z" fill="#F9B384"/>
<path d="M255.477 513.813C256.293 513.813 256.955 513.093 256.955 512.204C256.955 511.316 256.293 510.595 255.477 510.595C254.661 510.595 254 511.316 254 512.204C254 513.093 254.661 513.813 255.477 513.813Z" fill="#F9B384"/>
<path d="M234.275 630.471L215.028 638.742C215.028 638.742 230.892 679.245 235.543 681.79C240.197 684.335 237.87 661.856 241.042 655.071L245.061 639.167L234.275 630.471Z" fill="#102048"/>
<path d="M232.763 653.481L232.622 655.51L240.976 656.093L241.117 654.064L232.763 653.481Z" fill="white"/>
<path d="M229.412 627.501L241.044 655.069C241.044 655.069 286.307 631.318 297.517 609.688L279.75 586.364L229.412 627.501Z" fill="#7D69ED"/>
<path d="M290.112 649.768C290.112 649.768 311.263 650.618 320.992 633.864L299.418 630.684L290.112 649.768Z" fill="#102048"/>
<path d="M323.197 652.662L299.336 661.114L297.412 654.289L293.915 641.927L313.804 632.489L315.204 635.495L323.197 652.662Z" fill="#F9B384"/>
<path d="M353.354 682L327.233 661.326L323.201 652.667L299.338 661.112L305.236 682H353.354Z" fill="#102048"/>
<path d="M326.429 660.709L321.035 667.601L322.629 668.855L328.023 661.963L326.429 660.709Z" fill="white"/>
<path d="M315.204 635.495L297.412 654.289L293.915 641.927L313.804 632.489L315.204 635.495Z" fill="#E28B6D"/>
<path d="M320.999 633.861C309.752 636.706 299.469 642.018 290.117 649.768L274.037 607.357C274.037 607.357 241.595 638.36 222.223 633.231C203.815 628.355 211.848 597.811 211.848 597.811C237.126 580.065 277.338 556.233 294.958 575.108C295.049 575.188 295.121 575.26 295.192 575.343C298.799 579.314 302.873 587.167 306.702 595.862C314.341 613.179 320.999 633.861 320.999 633.861Z" fill="#7D69ED"/>
<path d="M306.702 595.86C289.174 599.994 271.14 580.471 271.14 580.471L289.254 574.509L294.958 575.108C295.049 575.188 295.121 575.26 295.192 575.343C298.799 579.311 302.873 587.164 306.702 595.86Z" fill="#5B4DAD"/>
<path d="M289.642 649.949L273.835 608.258C270.407 611.523 251.755 628.634 232.091 633.83L231.833 632.849C253.237 627.193 273.476 607.201 273.679 606.998L274.231 606.446L290.587 649.587L289.642 649.949Z" fill="#5B4DAD"/>
<path d="M237.917 529.588L230.816 552.606L221.261 583.569C221.261 583.569 214.291 586.078 208.141 585.296C202.711 584.606 197.919 581.334 199.214 571.45C202.072 549.661 237.917 529.588 237.917 529.588Z" fill="#FBC343"/>
<path d="M230.816 552.606L221.261 583.569C221.261 583.569 214.291 586.078 208.141 585.296C213.299 553.511 230.359 539.971 230.359 539.971L230.816 552.606Z" fill="#E49B31"/>
<path d="M307.4 552.372L302.113 572.567L284.259 555.684L291.343 543.779L300.916 548.899L307.4 552.372Z" fill="#FBC343"/>
<path d="M291.383 543.799L298.157 532.943L311.847 527.094L307.36 552.412L291.383 543.799Z" fill="#F9B384"/>
<path d="M357.888 523.025C354.291 522.162 351.05 522.303 348.121 523.38C346.186 524.091 344.383 525.22 342.72 526.744L336.105 511.364C338.405 510.957 340.503 510.267 342.397 509.261C345.143 507.809 347.432 505.706 349.216 502.852L357.888 523.025Z" fill="#1F3C88"/>
<path d="M342.736 526.73L336.125 511.355L238.725 557.71L242.244 565.899L342.736 526.73L336.125 511.355L342.736 526.73Z" fill="#1F3C88"/>
<path d="M357.888 523.025C354.291 522.162 351.05 522.303 348.121 523.38L342.397 509.261C345.143 507.809 347.432 505.706 349.215 502.852L357.888 523.025Z" fill="#102048"/>
<path d="M433.745 531.07C454.065 510.697 454.066 477.666 433.746 457.293C413.426 436.92 380.481 436.921 360.16 457.295C339.84 477.668 339.839 510.699 360.159 531.072C380.478 551.444 413.424 551.444 433.745 531.07Z" fill="#1F3C88"/>
<path d="M427.606 524.915C444.535 507.942 444.535 480.423 427.606 463.449C410.676 446.476 383.229 446.476 366.299 463.449C349.37 480.423 349.37 507.942 366.299 524.915C383.229 541.889 410.676 541.889 427.606 524.915Z" fill="white"/>
<path d="M357.436 476.323H436.463C436.291 475.943 436.122 475.561 435.941 475.188H357.975C357.793 475.564 357.608 475.941 357.436 476.323Z" fill="#86A7FF"/>
<path d="M436.331 512.35H357.587C357.761 512.73 357.931 513.112 358.113 513.485H435.785C435.972 513.107 436.158 512.73 436.331 512.35Z" fill="#86A7FF"/>
<path d="M364.582 494.778V493.895C364.582 490.331 361.673 487.414 358.118 487.414H354.142C353.424 491.942 353.413 496.613 354.182 501.261H358.118C361.671 501.259 364.582 498.342 364.582 494.778Z" fill="#D3DFFF"/>
<path d="M385.119 487.412C381.517 487.412 378.568 490.366 378.568 493.98V494.691C378.568 498.302 381.515 501.259 385.119 501.259H413.353C416.955 501.259 419.904 498.304 419.904 494.691V493.98C419.904 490.369 416.957 487.412 413.353 487.412H385.119Z" fill="#D3DFFF"/>
<path d="M439.784 487.412H438.329C434.53 487.412 431.423 490.527 431.423 494.335C431.423 498.143 434.53 501.259 438.329 501.259H439.719C440.468 496.736 440.52 492.065 439.784 487.412Z" fill="#D3DFFF"/>
<path d="M307.4 552.372L300.916 548.897L304.868 540.293C304.868 540.293 310.369 530.328 313.115 530.755C315.861 531.173 307.4 552.372 307.4 552.372Z" fill="#F9B384"/>
<path d="M284.264 555.684L282.918 557.95C280.241 554.26 274.339 546.396 266.916 540.15C260.241 534.538 251.184 525.812 243.278 527.021C222.11 530.239 211.853 597.813 211.853 597.813L266.624 577.935L278.895 587.52C281.563 589.605 284.919 590.601 288.29 590.309C293.951 589.819 298.692 585.806 300.121 580.29L302.118 572.574L284.264 555.684Z" fill="#FBC343"/>
<path d="M252.095 564.345L251.424 565.105L266.284 578.307L266.955 577.548L252.095 564.345Z" fill="#E49B31"/>
<path d="M281.856 555.852L281.029 556.437L289.98 569.137L290.806 568.551L281.856 555.852Z" fill="#E49B31"/>
</g>
<path d="M360.875 81.7539C360.875 85.4657 358.327 87.9714 354.595 87.9714C350.819 87.9714 348.271 85.4657 348.271 81.7539C348.271 78.066 350.819 75.5818 354.595 75.5818C358.327 75.5842 360.875 78.066 360.875 81.7539ZM351.199 81.7994C351.199 83.9867 352.585 85.4873 354.595 85.4873C356.561 85.4873 357.946 83.9843 357.946 81.7994C357.946 79.6144 356.561 78.1114 354.595 78.1114C352.585 78.1114 351.199 79.6144 351.199 81.7994Z" fill="#0367B4"/>
<path d="M375.575 80.2498V87.8554H372.649V81.1162C372.649 79.4074 371.644 78.3616 369.991 78.3616C368.025 78.3831 366.863 79.8645 366.863 81.8676V87.8554H363.958V75.674H366.863V77.95C367.713 76.3322 369.209 75.5807 371.153 75.5592C373.901 75.5592 375.575 77.3588 375.575 80.2498Z" fill="#0367B4"/>
<path d="M383.522 99.5295H340.324V64H383.522V99.5295ZM342.644 97.1674H381.204V66.3621H342.644V97.1674Z" fill="#0367B4"/>
<path d="M309.884 110.617C309.884 111.68 310.72 112.367 312.087 112.367C313.827 112.367 315.194 111.421 315.356 110.194V109.059H312.226C310.626 109.057 309.884 109.507 309.884 110.617Z" fill="#0367B4"/>
<path d="M279.996 108.372H285.7L282.871 101.425L279.996 108.372Z" fill="#0367B4"/>
<path d="M327.739 112.151C329.686 112.151 331.264 110.427 331.264 108.301C331.264 106.174 329.686 104.45 327.739 104.45C325.793 104.45 324.214 106.174 324.214 108.301C324.214 110.427 325.793 112.151 327.739 112.151Z" fill="#0367B4"/>
<path d="M266 87.7788V124H342.498V87.7788H266ZM288.251 114.585L286.814 111.089H278.883L277.446 114.585H274.222L281.34 98.0432H284.564L291.59 114.585H288.251ZM302.419 114.585L299.056 109.057L297.154 111.089V114.585H294.138V97.05H297.154V107.212L302.254 101.966H305.732L301.141 106.833L306.012 114.585H302.419ZM315.379 114.585V113.049C314.522 114.159 313.13 114.726 311.368 114.726C308.701 114.726 307.033 113.049 307.033 110.804C307.033 108.463 308.726 107.023 311.739 106.999H315.356V106.668C315.356 105.204 314.405 104.328 312.55 104.328C311.389 104.328 310.138 104.73 308.863 105.51L307.773 103.382C309.558 102.365 310.95 101.822 313.221 101.822C316.467 101.822 318.298 103.5 318.322 106.312L318.345 114.583H315.379V114.585ZM334.277 114.585H331.261V112.553C330.381 113.948 328.944 114.726 327.088 114.726C323.54 114.726 321.175 112.079 321.175 108.229C321.175 104.4 323.54 101.824 327.018 101.824C328.92 101.824 330.357 102.605 331.261 104.021V97.05H334.277V114.585Z" fill="#0367B4"/>
<defs>
<linearGradient id="paint0_linear" x1="24.3593" y1="24" x2="649" y2="24" gradientUnits="userSpaceOnUse">
<stop stop-color="#FF005A"/>
<stop offset="0.0001" stop-color="#FF005A"/>
<stop offset="1" stop-color="#FF480D"/>
</linearGradient>
<clipPath id="clip0">
<rect width="250" height="240" fill="white" transform="translate(199 442)"/>
</clipPath>
</defs>
</svg>
